# xmcd
#
# Track frame offsets: 
#        150
#        14581
#        32762
#        44679
#        56949
#        69740
#        82653
#        99106
#        117833
#        143919
#        163508
#        180539
#        193058
#        210643
#
# Disc length: 3005 seconds
#
# Revision: 0
# Processed by: cddbd v1.5.2PL0 Copyright (c) Steve Scherf et al.
# Submitted via: ExactAudioCopy v1.3
#
DISCID=c10bbb0e
DTITLE=The Black Sorrows - Endless Sleep (Chapter 46)
DYEAR=2015
DGENRE=Blues Rock
TTITLE0=Devil In Disguise
TTITLE1=Dirty Boulevard
TTITLE2=God Don't Like It
TTITLE3=That's A Pretty Good Love
TTITLE4=Excitable Boy
TTITLE5=Endless Sleep
TTITLE6=I'm So Lonesome I Could Cry
TTITLE7=Hard Time Killing Floor
TTITLE8=Lonnie's Lament
TTITLE9=Better Days Ahead
TTITLE10=61 Highway
TTITLE11=Baby Let Me Kiss You
TTITLE12=Storybook Love
TTITLE13=Just Like the Fool I Was
EXTD=
EXTT0=
EXTT1=
EXTT2=
EXTT3=
EXTT4=
EXTT5=
EXTT6=
EXTT7=
EXTT8=
EXTT9=
EXTT10=
EXTT11=
EXTT12=
EXTT13=
PLAYORDER=
